<?xml version="1.0" encoding="UTF-8"?>
<!--Generator: Apple Native CoreSVG 232.5-->
<!DOCTYPE svg
PUBLIC "-//W3C//DTD SVG 1.1//EN"
       "http://www.w3.org/Graphics/SVG/1.1/DTD/svg11.dtd">
<svg version="1.1" xmlns="http://www.w3.org/2000/svg" xmlns:xlink="http://www.w3.org/1999/xlink" width="18.5449" height="24.6777">
 <g>
  <rect height="24.6777" opacity="0" width="18.5449" x="0" y="0"/>
  <path d="M9.28711 23.0566C14.707 23.0566 18.5449 21.2988 18.5449 18.7793C18.5449 16.2695 14.707 14.5117 9.28711 14.5117C3.85742 14.5117 0 16.2695 0 18.7793C0 21.2988 3.85742 23.0566 9.28711 23.0566ZM9.27734 21.5137C5.17578 21.5137 1.99219 20.3223 1.99219 18.7793C1.99219 17.2559 5.17578 16.0645 9.27734 16.0645C13.3594 16.0645 16.5625 17.2656 16.5625 18.7793C16.5625 20.3027 13.3594 21.5137 9.27734 21.5137Z" fill="#000000" fill-opacity="0.85"/>
  <path d="M9.27734 20.0781C10.9277 20.0781 11.7871 18.4961 11.7871 15.4199L11.7871 9.95117C13.4375 9.05273 14.5508 7.30469 14.5508 5.29297C14.5508 2.39258 12.1973 0 9.27734 0C6.34766 0 3.99414 2.39258 3.99414 5.29297C3.99414 7.30469 5.09766 9.04297 6.74805 9.95117L6.74805 15.4199C6.74805 18.4961 7.62695 20.0781 9.27734 20.0781Z" fill="#ffffff"/>
  <path d="M5.60547 5.29297C5.60547 7.01172 6.77734 8.44727 8.36914 8.84766L8.36914 15.0293C8.36914 17.9102 8.87695 19.4824 9.27734 19.4824C9.66797 19.4824 10.1758 17.9199 10.1758 15.0293L10.1758 8.84766C11.7676 8.45703 12.9395 7.01172 12.9395 5.29297C12.9395 3.27148 11.3086 1.61133 9.27734 1.61133C7.23633 1.61133 5.60547 3.27148 5.60547 5.29297ZM8.22266 5.49805C7.55859 5.49805 6.97266 4.91211 6.97266 4.22852C6.97266 3.55469 7.55859 2.97852 8.22266 2.97852C8.91602 2.97852 9.48242 3.55469 9.48242 4.22852C9.48242 4.91211 8.91602 5.49805 8.22266 5.49805Z" fill="#000000" fill-opacity="0.85"/>
  <path d="M8.22266 5.49805C7.55859 5.49805 6.97266 4.91211 6.97266 4.22852C6.97266 3.55469 7.55859 2.97852 8.22266 2.97852C8.91602 2.97852 9.48242 3.55469 9.48242 4.22852C9.48242 4.91211 8.91602 5.49805 8.22266 5.49805Z" fill="#ffffff"/>
 </g>
</svg>
